{"title":"Kinjite, Forbidden Subjects 1989 DVDrip English Klam","uid":6036625,"size":1054086328,"categoryP":"video","categoryS":"movies","magnet":"?xt=urn:btih:6e609932074ff87aed444c9eaae798c79b86c7fb&amp;dn=Kinjite%2C+Forbidden+Subjects+1989+DVDrip+English+Klam&amp;tr=udp%3A%2F%2Ftracker.openbittorrent.com%3A80&amp;tr=udp%3A%2F%2Fopen.demonii.com%3A1337&amp;tr=udp%3A%2F%2Ftracker.coppersurfer.tk%3A6969&amp;tr=udp%3A%2F%2Fexodus.desync.com%3A6969","seeders":3,"leechers":1,"uploader":"Klambake","files":-1,"time":1292251176,"description":"With: Charles Bronson, Perry Lopez and Juan FernÃƒÂ¡ndez\n\nA Tokyo businessman (Hiroshi Hada), transferred to L.A, molests a teenage girl on a train. It turns out that the girl is the daughter of a vice cop. But in one of those plot twists that can only occur in the movies, the cop is assigned to find the businessman's own daughter who has been kidnapped and forced into a teen prostitution ring. \n\nGeneral:\n\nComplete name                    : Kinjite\\Forbidden Subjects.avi\nFormat                           : AVI\nFormat/Info                      : Audio Video Interleave\nFile size                        : 1 005 MiB\nDuration                         : 1h 33mn\nOverall bit rate                 : 1 497 Kbps\n\nVideo:\n\nFormat                           : MPEG-4 Visual\nFormat profile                   : Simple@L3\nFormat settings, BVOP            : No\nFormat settings, QPel            : No\nFormat settings, GMC             : No warppoints\nFormat settings, Matrix          : Default (H.263)\nCodec ID                         : XVID\nCodec ID/Hint                    : XviD\nDuration                         : 1h 33mn\nBit rate                         : 1 294 Kbps\nWidth                            : 720 pixels\nHeight                           : 576 pixels\nDisplay aspect ratio             : 5:4\nFrame rate                       : 25.000 fps\nStandard                         : PAL\nColor space                      : YUV\nChroma subsampling               : 4:2:0\nBit depth                        : 8 bits\nScan type                        : Progressive\nBits/(Pixel*Frame)               : 0.125\nStream size                      : 869 MiB (86%)\nWriting library                  : XviD 1.1.2 (UTC 2006-11-01)\n\nAudio:\n\nFormat                           : AC-3\nFormat/Info                      : Audio Coding 3\nFormat profile                   : Dolby Digital\nMode extension                   : CM (complete main)\nCodec ID                         : 2000\nDuration                         : 1h 33mn\nBit rate mode                    : Constant\nBit rate                         : 192 Kbps\nChannel(s)                       : 2 channels\nChannel positions                : Front: L R\nSampling rate                    : 48.0 KHz\nBit depth                        : 16 bits\nStream size                      : 129 MiB (13%)\nAlignment                        : Aligned on interleaves\nInterleave, duration             : 32 ms (0.80 video frame)\nInterleave, preload duration     : 1536 ms\n\n","torrent":{"xt":"urn:btih:6e609932074ff87aed444c9eaae798c79b86c7fb","amp;dn":"Kinjite%2C+Forbidden+Subjects+1989+DVDrip+English+Klam","amp;tr":["udp%3A%2F%2Ftracker.openbittorrent.com%3A80","udp%3A%2F%2Fopen.demonii.com%3A1337","udp%3A%2F%2Ftracker.coppersurfer.tk%3A6969","udp%3A%2F%2Fexodus.desync.com%3A6969"],"infoHash":"6e609932074ff87aed444c9eaae798c79b86c7fb","infoHashBuffer":{"type":"Buffer","data":[110,96,153,50,7,79,248,122,237,68,76,158,170,231,152,199,155,134,199,251]},"announce":[],"urlList":[]}}